<?xml version="1.0" standalone="no"?>
<!DOCTYPE svg PUBLIC "-//W3C//DTD SVG 20010904//EN"
 "http://www.w3.org/TR/2001/REC-SVG-20010904/DTD/svg10.dtd">
<svg version="1.0" xmlns="http://www.w3.org/2000/svg"
 width="1280.000000pt" height="752.000000pt" viewBox="0 0 1280.000000 752.000000"
 preserveAspectRatio="xMidYMid meet">

<g transform="translate(0.000000,752.000000) scale(0.100000,-0.100000)"
fill="#000000" stroke="none">
<path d="M4739 5857 c-229 -86 -298 -362 -135 -535 69 -74 137 -104 236 -105
62 0 86 4 135 27 254 115 267 458 22 592 -43 23 -66 29 -137 31 -54 2 -98 -2
-121 -10z"/>
<path d="M6185 5497 c-22 -8 -51 -19 -64 -26 -45 -25 -113 -95 -139 -146 -36
-68 -38 -205 -5 -277 31 -67 92 -129 160 -163 50 -25 69 -29 143 -29 74 0 93
4 143 29 68 34 129 96 160 163 16 37 21 67 21 137 1 78 -3 96 -26 140 -32 62
-104 130 -166 158 -58 25 -171 32 -227 14z"/>
<path d="M3395 5447 c-63 -21 -98 -42 -142 -87 -64 -63 -87 -120 -91 -220 -3
-74 0 -93 21 -142 52 -117 156 -188 286 -196 141 -8 250 57 313 186 81 164 13
354 -156 437 -67 33 -168 42 -231 22z"/>
<path d="M4637 4943 c-4 -3 -7 -98 -7 -209 0 -203 0 -204 -22 -208 -173 -34
-237 -50 -313 -75 -82 -27 -91 -28 -102 -13 -7 8 -55 87 -105 175 -51 88 -98
162 -105 164 -14 6 -383 -205 -390 -223 -6 -15 7 -40 115 -223 l84 -145 -28
-19 c-16 -11 -88 -79 -160 -152 l-131 -132 -177 100 c-141 80 -181 98 -194 90
-24 -15 -225 -370 -219 -386 3 -8 82 -57 176 -111 94 -53 171 -101 171 -105 0
-5 -7 -28 -15 -51 -8 -23 -15 -44 -15 -46 0 -2 93 -4 208 -4 l207 0 39 73 c59
109 121 192 221 296 186 193 402 315 675 382 82 20 121 23 290 23 126 1 216
-4 255 -12 426 -93 755 -336 952 -702 l29 -55 208 -3 208 -2 -6 24 c-3 13 -8
30 -11 38 -3 9 51 46 164 111 93 54 175 104 181 112 13 16 6 31 -113 235 -47
80 -94 150 -104 156 -15 10 -44 -4 -183 -87 -91 -53 -170 -98 -176 -98 -7 -1
-44 37 -83 83 -39 46 -102 110 -139 142 -37 32 -73 63 -81 70 -12 11 -9 20 16
61 16 26 56 95 88 153 32 58 64 115 72 127 7 12 13 29 13 37 0 16 -353 219
-383 220 -17 1 -41 -33 -119 -164 -53 -91 -98 -169 -100 -173 -2 -5 -57 9
-123 32 -66 22 -162 48 -212 57 l-93 18 0 197 c0 109 -3 204 -6 213 -5 14 -35
16 -228 16 -123 0 -226 -3 -229 -7z"/>
<path d="M2435 4486 c-104 -33 -170 -90 -216 -185 -33 -67 -33 -195 0 -268 28
-62 103 -136 169 -166 72 -33 198 -31 273 4 113 53 179 152 187 279 6 105 -22
175 -97 250 -45 45 -69 60 -124 78 -75 25 -132 27 -192 8z"/>
<path d="M7087 4440 c-104 -27 -200 -110 -237 -206 -29 -77 -25 -185 11 -259
69 -146 240 -218 402 -169 77 23 155 93 194 172 24 49 28 69 28 142 -1 73 -5
93 -28 138 -72 138 -232 216 -370 182z"/>
<path d="M7760 2565 l0 -895 230 0 230 0 0 188 0 188 49 48 49 48 34 -53 c19
-30 85 -136 148 -236 l114 -183 238 0 c131 0 238 3 238 6 0 6 -11 23 -288 434
-102 150 -185 279 -185 285 0 6 85 119 189 250 104 132 202 257 218 278 l28
37 -239 0 -239 0 -115 -161 c-63 -88 -119 -166 -124 -172 -6 -7 -33 -43 -60
-82 l-50 -70 -3 493 -2 492 -230 0 -230 0 0 -895z"/>
<path d="M9190 3271 l0 -188 80 -7 c84 -8 356 -6 378 2 9 3 12 51 12 193 l0
189 -235 0 -235 0 0 -189z"/>
<path d="M9892 2688 c4 -894 -2 -840 97 -939 48 -47 69 -61 125 -78 124 -38
327 -25 476 32 75 28 72 12 41 192 -30 178 -24 165 -69 149 -82 -29 -165 -10
-194 45 -10 21 -14 162 -16 699 l-3 672 -230 0 -230 0 3 -772z"/>
<path d="M10772 2678 l3 -783 26 -55 c33 -70 85 -122 157 -157 49 -23 72 -28
169 -31 126 -5 211 7 326 45 64 21 77 29 77 47 0 11 -11 84 -25 160 -14 77
-25 143 -25 147 0 4 -21 1 -47 -7 -60 -18 -107 -18 -144 2 -60 30 -59 19 -59
749 l0 665 -230 0 -230 0 2 -782z"/>
<path d="M1430 3165 l0 -205 -80 0 -80 0 0 -175 0 -175 79 0 80 0 3 -359 3
-358 35 -69 c96 -188 321 -232 657 -128 62 19 114 38 116 42 5 7 -70 353 -78
360 -2 2 -26 -3 -54 -13 -60 -20 -138 -23 -169 -6 -46 24 -52 63 -52 306 l0
225 130 0 130 0 0 175 0 174 -127 3 -128 3 -3 203 -2 202 -230 0 -230 0 0
-205z"/>
<path d="M4638 2956 c-84 -34 -163 -103 -222 -191 l-26 -40 0 118 0 117 -215
0 -215 0 0 -645 0 -645 230 0 230 0 1 368 c0 202 2 375 4 385 13 68 192 137
356 137 l59 0 0 210 0 210 -72 0 c-53 0 -89 -7 -130 -24z"/>
<path d="M5700 2965 c-89 -24 -175 -72 -237 -130 -32 -30 -59 -55 -60 -55 -2
0 -3 41 -3 90 l0 90 -210 0 -210 0 0 -645 0 -645 235 0 235 0 0 360 c0 413 -2
400 90 484 80 71 162 84 223 36 56 -44 57 -53 57 -484 l0 -396 235 0 235 0 0
458 c-1 491 -7 567 -51 660 -31 64 -93 128 -154 160 -46 24 -61 27 -190 29
-100 2 -156 -2 -195 -12z"/>
<path d="M6826 2964 c-244 -59 -401 -296 -344 -522 9 -35 25 -60 63 -99 72
-72 182 -124 400 -189 120 -35 183 -68 196 -101 22 -57 -12 -83 -110 -83 -103
0 -215 37 -348 116 -42 24 -77 43 -78 42 -6 -8 -96 -161 -123 -210 l-32 -57
23 -22 c65 -62 188 -123 323 -160 107 -29 329 -37 431 -16 138 30 268 118 318
218 30 59 48 167 40 239 -20 174 -145 267 -485 361 -175 48 -200 64 -200 130
0 22 7 32 32 45 66 34 198 1 351 -88 38 -22 70 -38 71 -36 11 13 166 266 166
271 0 11 -164 114 -210 131 -115 45 -360 60 -484 30z"/>
<path d="M2370 2508 c0 -260 5 -480 10 -516 44 -268 218 -382 517 -338 140 21
230 62 318 146 35 34 65 58 68 53 3 -4 10 -28 17 -53 16 -59 80 -124 140 -141
49 -14 198 -15 270 -2 l45 9 2 194 3 195 -33 15 c-54 25 -56 42 -56 488 l-1
402 -230 0 -230 0 0 -399 0 -398 -50 -50 c-54 -54 -99 -73 -174 -73 -64 0
-104 23 -127 73 -17 39 -19 71 -19 445 l0 402 -235 0 -235 0 0 -452z"/>
<path d="M9190 2315 l0 -645 233 2 232 3 3 643 2 642 -235 0 -235 0 0 -645z"/>
</g>
</svg>
