<svg id="Capa_1" enable-background="new 0 0 512 512" height="512" viewBox="0 0 512 512" width="512" xmlns="http://www.w3.org/2000/svg"><g><g><path d="m502 136v330h-492v-330z" fill="#eefaff"/><path d="m502 46v90h-492v-90z" fill="#8690a6"/><path d="m256 196-135 60 60 26.67v63.33c0 16.57 33.58 30 75 30s75-13.43 75-30v-63.33l60-26.67z" fill="#a0c8ff"/></g><g><path d="m256 386c42.239 0 85-13.739 85-40v-56.835l40-17.778v104.613c0 5.522 4.478 10 10 10s10-4.478 10-10v-120c0-4.434-2.771-7.812-6.123-9.22l-134.816-59.918c-2.586-1.15-5.537-1.15-8.123 0l-135 60c-3.61 1.605-5.938 5.186-5.938 9.138 0 3.951 2.327 7.533 5.938 9.138l54.062 24.027v56.835c0 26.261 42.76 40 85 40zm65-40c0 5.981-22.115 20-65 20s-65-14.019-65-20v-47.945l60.938 27.084c1.293.574 2.678.861 4.062.861s2.769-.287 4.062-.861l60.938-27.085zm-175.379-89.999 110.379-49.058 110.379 49.058-110.379 49.056z"/><path d="m502 36h-492c-5.523 0-10 4.477-10 10v420c0 5.522 4.477 10 10 10h201c5.523 0 10-4.478 10-10s-4.477-10-10-10h-191v-310h472v310h-191c-5.522 0-10 4.478-10 10s4.478 10 10 10h201c5.522 0 10-4.478 10-10v-420c0-5.523-4.478-10-10-10zm-10 90h-472v-70h286v20c0 5.522 4.478 10 10 10s10-4.478 10-10v-20h40v20c0 5.522 4.478 10 10 10s10-4.478 10-10v-20h40v20c0 5.522 4.478 10 10 10s10-4.478 10-10v-20h46z"/><circle cx="256" cy="466" r="10"/></g></g></svg>